<?xml version="1.0" encoding="iso-8859-1"?>
<!-- Generator: Adobe Illustrator 19.0.0, SVG Export Plug-In . SVG Version: 6.00 Build 0)  -->
<svg version="1.1" id="Capa_1" xmlns="http://www.w3.org/2000/svg" xmlns:xlink="http://www.w3.org/1999/xlink" x="0px" y="0px"
	 viewBox="0 0 512 512" style="enable-background:new 0 0 512 512;" xml:space="preserve">
<g>
	<g>
		<path d="M482.026,205.389c-21.864-25.032-50.006-46.165-79.249-59.51c-0.018-0.008-0.035-0.017-0.053-0.025
			c-7.986-3.647-16.189-6.791-24.383-9.342c-2.034-0.633-4.074-1.232-6.121-1.798c-9.871-15.188-23.267-27.933-38.956-37.017
			c-17.414-10.082-37.31-15.411-57.538-15.411h-95c-5.523,0-10,4.477-10,10c0,27.586,10.026,54.275,27.864,75.028
			c-11.516,7.02-22.388,14.485-32.442,21.969c-23.086-33.71-61.493-54.224-102.786-54.224H10c-5.523,0-10,4.477-10,10v39.68
			c0,32.353,18.203,60.535,44.906,74.841C18.203,273.885,0,302.067,0,334.42v39.68c0,5.523,4.477,10,10,10h53.364
			c41.294,0,79.701-20.514,102.787-54.225c3.419,2.546,6.933,5.089,10.535,7.614c-9.89,17.297-15.075,36.791-15.075,56.948
			c0,5.523,4.477,10,10,10h24.119c22.362,0,44.307-6.592,62.914-18.741c-3.395,10.945-5.11,22.332-5.11,34.018
			c0,5.523,4.477,10,10,10h47.413c21.812,0,43.042-6.137,61.395-17.747c16.888-10.684,30.684-25.539,40.072-43.102
			c25.868-13.265,50.314-32.333,69.669-54.467C500.537,293.295,512,272.29,512,259.58C512,247.507,500.235,226.236,482.026,205.389z
			 M191.259,102.285h84.468c25.144,0,48.495,9.621,65.941,26.529c-6.063-0.676-12.148-1.065-18.236-1.163
			c-0.019,0-0.086-0.001-0.105-0.001c-0.959-0.01-1.948-0.02-2.916-0.02c-18.634,0-38.31,3.324-58.475,9.878
			c-15.797,5.123-31.094,11.918-45.592,19.656C202.263,142.083,193.442,122.744,191.259,102.285z M20,184.739v-29.68h43.364
			c35.068,0,67.658,17.63,86.961,46.526c-25.94,21.027-44.461,40.311-51.543,47.994H84.841c-0.025,0-0.051,0-0.076,0
			C49.046,249.538,20,220.467,20,184.739z M63.364,364.1H20v-29.68c0-35.728,29.046-64.8,64.765-64.841c0.025,0,0.051,0,0.076,0
			h13.941c7.081,7.682,25.603,26.965,51.544,47.993C131.023,346.47,98.432,364.1,63.364,364.1z M195.729,384.437H182.13
			c1.317-12.614,5.127-24.747,11.247-35.825c14.6,9.221,30.315,17.809,46.773,24.849
			C226.585,380.681,211.504,384.437,195.729,384.437z M310.947,409.715h-36.898c0.824-7.942,2.638-15.679,5.424-23.141
			c14.043,3.293,27.753,4.956,40.938,4.956c1.005,0,2.021-0.01,3.071-0.021c18.055-0.291,36.019-3.088,53.409-8.311
			C359.513,399.999,336.12,409.715,310.947,409.715z M372.509,363.625c-8.457,2.613-17.064,4.585-25.746,5.907
			c-23.248-31.724-36.033-70.717-36.033-109.996c0-11.736,1.119-23.456,3.332-34.984c0.021-0.102,0.041-0.204,0.059-0.306
			c0.765-3.949,1.659-7.876,2.68-11.772c1.401-5.342-1.794-10.809-7.137-12.209c-5.341-1.399-10.808,1.795-12.209,7.137
			c-0.444,1.695-0.867,3.395-1.267,5.099h-30.077c-23.986,0-43.5,19.514-43.5,43.5c0,23.986,19.514,43.5,43.5,43.5H294.7
			c5.094,25.529,14.995,50.084,29.146,71.998c-0.211,0.004-0.422,0.008-0.633,0.012c-0.925,0.01-1.869,0.02-2.803,0.02
			c-13.925,0-28.612-2.123-43.765-6.318c-0.227-0.072-0.456-0.136-0.685-0.191c-2.592-0.727-5.197-1.515-7.815-2.363
			c-0.935-0.303-1.867-0.613-2.799-0.93c-0.227-0.087-0.456-0.165-0.688-0.234c-68.721-23.584-128.885-82.183-147.786-101.914
			c19.218-20.065,81.082-80.299,151.237-103.049c18.171-5.906,35.768-8.9,52.299-8.9c0.899,0,1.817,0.01,2.698,0.019
			c13.505,0.219,27.001,2.032,40.239,5.401c0.027,0.007,0.055,0.014,0.082,0.021c3.003,0.766,5.993,1.612,8.967,2.537
			c3.186,0.989,6.373,2.08,9.547,3.265c-22.669,28.567-35.01,63.806-35.01,100.665c0,36.935,12.395,72.236,35.165,100.844
			C378.914,361.558,375.713,362.64,372.509,363.625z M291.719,279.5h-25.608c-12.958,0-23.5-10.542-23.5-23.5s10.542-23.5,23.5-23.5
			h26.407c-1.19,8.959-1.789,17.993-1.789,27.036C290.729,266.208,291.063,272.872,291.719,279.5z M467.027,301.233
			c-18.245,20.865-41.405,38.739-65.816,50.887c-22.157-25.778-34.28-58.381-34.28-92.58c0-34.097,12.045-66.612,34.063-92.341
			c24.358,12.247,47.57,30.281,65.97,51.347C485.696,239.992,492,255.705,492,259.58C492,263.852,485.896,279.656,467.027,301.233z"
			/>
	</g>
</g>
<g>
	<g>
		<path d="M403,210.579c-5.523,0-10,4.477-10,10v9.976c0,5.523,4.477,10,10,10s10-4.477,10-10v-9.976
			C413,215.056,408.522,210.579,403,210.579z"/>
	</g>
</g>
<g>
	<g>
		<path d="M328.8,175.03c-0.13-0.64-0.32-1.26-0.57-1.87c-0.25-0.6-0.56-1.18-0.92-1.72c-0.36-0.55-0.78-1.06-1.24-1.52
			c-0.46-0.46-0.97-0.88-1.52-1.25c-0.54-0.36-1.12-0.67-1.73-0.92c-0.6-0.25-1.23-0.44-1.87-0.57c-1.29-0.26-2.62-0.26-3.91,0
			c-0.63,0.13-1.26,0.32-1.87,0.57c-0.6,0.25-1.18,0.56-1.72,0.92c-0.55,0.37-1.06,0.79-1.52,1.25c-0.46,0.46-0.88,0.97-1.25,1.52
			c-0.36,0.54-0.67,1.12-0.92,1.72c-0.25,0.61-0.44,1.23-0.57,1.87c-0.13,0.65-0.19,1.3-0.19,1.96c0,0.65,0.06,1.31,0.19,1.95
			s0.32,1.27,0.57,1.87s0.56,1.19,0.92,1.73c0.37,0.54,0.79,1.06,1.25,1.52c1.86,1.86,4.43,2.93,7.07,2.93
			c0.65,0,1.31-0.07,1.95-0.2s1.27-0.32,1.87-0.57c0.61-0.25,1.19-0.56,1.73-0.92c0.55-0.36,1.06-0.78,1.52-1.24
			c0.46-0.46,0.88-0.98,1.24-1.52s0.67-1.13,0.92-1.73c0.25-0.6,0.44-1.23,0.57-1.87c0.13-0.64,0.2-1.3,0.2-1.95
			C329,176.34,328.93,175.68,328.8,175.03z"/>
	</g>
</g>
<g>
</g>
<g>
</g>
<g>
</g>
<g>
</g>
<g>
</g>
<g>
</g>
<g>
</g>
<g>
</g>
<g>
</g>
<g>
</g>
<g>
</g>
<g>
</g>
<g>
</g>
<g>
</g>
<g>
</g>
</svg>
